PathFileType	4	(X/Y/Z)	Run_300 02
DataRate	CameraRate	NumFrames	NumMarkers	Units	OrigDataRate	OrigDataStartFrame	OrigNumFrames
100	100	5	42	mm	100	5	128
Frame#	Time	RASI			LPSI			RPSI			RTH1			RTH2			RTH3			LTH1			LTH2			LTH3			RTB1			RTB2			RTB3			LTB1			LTB2			LTB3			RCAL			RTOE			RMT5			LCAL			LTOE			LMT5			LACR			RACR			CLAV			C7			RUA1			RUA2			RUA3			RLEL			RMEL			LUA1			LUA2			LUA3			LLEL			LMEL			RFAsuperior			RFAradius			RFAulna			LFAsuperior			LFAradius			LFAulna			LASI			
		X1	Y1	Z1	X2	Y2	Z2	X3	Y3	Z3	X4	Y4	Z4	X5	Y5	Z5	X6	Y6	Z6	X7	Y7	Z7	X8	Y8	Z8	X9	Y9	Z9	X10	Y10	Z10	X11	Y11	Z11	X12	Y12	Z12	X13	Y13	Z13	X14	Y14	Z14	X15	Y15	Z15	X16	Y16	Z16	X17	Y17	Z17	X18	Y18	Z18	X19	Y19	Z19	X20	Y20	Z20	X21	Y21	Z21	X22	Y22	Z22	X23	Y23	Z23	X24	Y24	Z24	X25	Y25	Z25	X26	Y26	Z26	X27	Y27	Z27	X28	Y28	Z28	X29	Y29	Z29	X30	Y30	Z30	X31	Y31	Z31	X32	Y32	Z32	X33	Y33	Z33	X34	Y34	Z34	X35	Y35	Z35	X36	Y36	Z36	X37	Y37	Z37	X38	Y38	Z38	X39	Y39	Z39	X40	Y40	Z40	X41	Y41	Z41	X42	Y42	Z42	

1	0.52	988.826869	1084.105305	-224.040386	851.822484	1134.26801	-421.380457	835.187136	1134.09294	-307.910231	925.197957	966.793983	-169.348035	919.470504	809.6315530000001	-196.000933	1005.65849	677.058161	-206.950031	945.6033609999999	930.149819	-518.019648	827.710289	805.073789	-484.04692	843.017397	661.1545159999999	-467.216377	1116.736218	443.758025	-281.421174	1044.19241	383.981713	-216.175313	1116.391725	256.139104	-303.158151	745.5651800000001	452.611868	-403.131873	612.454989	469.414787	-464.474693	545.308774	364.50273	-412.711305	1024.135291	96.494483	-306.602447	1255.909528	157.867161	-349.313724	1230.012956	99.215571	-260.312644	383.787163	416.897439	-414.603234	429.188497	191.547276	-356.887382	375.21666	203.535762	-454.586686	985.06849	1574.100163	-493.424953	964.574218	1550.807095	-177.410325	1033.286331	1520.493594	-300.211111	914.03477	1585.583828	-344.827364	825.36106	1498.11968	-142.260679	840.83974	1432.323228	-98.468982	743.712163	1389.564986	-79.097396	688.923569	1341.727033	-64.33899099999999	701.03279	1312.150796	-149.946973	893.329879	1486.32739	-565.806613	923.346949	1413.90061	-595.315238	853.227208	1354.920436	-635.7076520000001	839.476615	1287.700412	-659.279089	805.681346	1263.554305	-576.6269150000001	763.450679	1263.417956	-48.848344	916.50323	1187.224672	-110.264809	875.304001	1146.534415	-72.84903199999999	909.688055	1248.586365	-635.461156	1047.952434	1282.863325	-512.264354	1059.052767	1215.081445	-537.809796	1011.281196	1065.006334	-467.910938	
2	0.53	987.97631	1078.220172	-224.134673	850.599369	1127.288955	-421.446845	834.150635	1127.081027	-308.143362	922.808625	959.769002	-169.077561	918.4743570000001	802.459022	-197.680241	1005.507912	670.753412	-209.225692	946.964886	924.1978779999999	-518.153099	833.433519	795.124055	-484.59204	853.133003	652.1006149999999	-469.089499	1112.650718	435.155426	-283.34745	1038.53112	376.689253	-218.662947	1108.29229	247.564214	-305.550269	756.681701	446.201999	-405.544274	624.630038	471.521914	-465.896442	551.573294	370.013892	-416.447148	1011.781756	92.921117	-310.428083	1244.919789	144.84144	-353.321963	1216.683992	86.019301	-264.594098	392.879475	431.993969	-416.992704	427.156657	203.363072	-364.724127	373.779821	220.469801	-461.933925	983.905573	1568.164666	-492.686688	965.695788	1543.346179	-176.861786	1033.361596	1513.534785	-300.172492	913.8515169999999	1579.326289	-343.952156	827.561372	1489.215988	-138.526965	844.182723	1422.946311	-96.305667	747.989411	1378.828253	-75.416905	693.891221	1330.460483	-60.16405	705.092851	1301.294845	-145.798056	891.565131	1480.811701	-564.799981	921.233605	1408.290533	-594.529509	851.005959	1349.5444	-634.7267880000001	836.882582	1282.420578	-658.0692749999999	802.876905	1258.528138	-575.563123	769.604989	1253.107881	-45.823181	922.756692	1178.979181	-109.538499	882.534412	1137.636846	-71.67558	906.186491	1241.121076	-635.377533	1046.168984	1269.770888	-512.146611	1055.476092	1202.658976	-539.912342	1009.750958	1058.548447	-468.90875	
3	0.54	987.152883	1070.468726	-224.872389	849.214218	1119.718366	-421.382537	833.195037	1118.860454	-308.200553	920.645638	951.577411	-169.399972	916.712432	794.321683	-200.461943	1004.539305	663.404718	-211.215739	947.826215	917.918874	-518.662381	839.141066	784.681826	-485.108762	863.821892	642.612724	-472.020896	1107.451427	424.934176	-284.466232	1030.970655	368.401384	-220.936397	1097.376444	237.499482	-307.777085	769.191579	439.487198	-408.819944	638.6711319999999	472.543896	-468.020827	560.280301	374.622554	-420.054974	994.464779	91.902699	-314.376907	1229.670871	125.685987	-357.361245	1197.592842	70.66513999999999	-267.34862	404.734997	445.410884	-417.984109	428.593032	213.85756	-372.861831	376.082964	236.570633	-469.433343	982.357615	1560.987137	-492.129512	966.7650190000001	1534.881547	-176.281132	1033.411892	1505.67593	-300.144343	913.435921	1571.986159	-343.252353	829.807351	1479.040399	-134.632806	847.915156	1412.402422	-93.88005200000001	752.801046	1366.711786	-71.310158	699.5856240000001	1317.737136	-55.37316	709.747427	1288.992193	-141.073116	889.344646	1474.126102	-563.660671	918.85771	1401.40096	-593.612095	848.401221	1342.983091	-633.480425	833.663592	1276.141388	-656.698996	799.793271	1252.329758	-574.469214	776.463151	1241.288782	-42.322462	929.57659	1169.398024	-108.663371	890.481856	1127.387656	-70.315043	901.977344	1232.537525	-635.306527	1043.772179	1255.121932	-512.339234	1051.135342	1188.809844	-542.39948	1007.962758	1051.399947	-469.852419	
4	0.55	986.292774	1061.132884	-226.189612	847.790894	1111.600093	-421.423488	832.217657	1109.940805	-308.160827	919.221395	942.428869	-170.527397	914.229326	785.8092349999999	-203.105437	1003.147708	655.140165	-212.494207	948.377449	911.114595	-519.189252	844.840864	773.816912	-485.383232	875.084087	632.825475	-475.372171	1101.962483	414.094474	-285.871415	1022.676734	360.130128	-223.612727	1083.558435	227.191066	-311.259378	782.988167	432.507861	-413.35711	653.997261	472.858483	-470.738131	571.0706740000001	378.324374	-423.820301	972.283214	92.786891	-319.042704	1209.898998	104.446538	-361.105162	1173.485783	57.638016	-268.353303	418.327764	456.76116	-417.769492	434.165091	222.898933	-381.205593	382.375798	251.174088	-476.8345	980.419269	1552.669725	-491.870016	967.881442	1525.475034	-175.506562	1033.51491	1497.011438	-300.082263	912.734725	1563.520408	-342.594655	832.097843	1467.671005	-130.737344	852.058078	1400.7501	-91.203728	758.183725	1353.339575	-66.813931	706.1019690000001	1303.752743	-49.9559	715.026177	1275.355738	-135.748166	886.576987	1466.185053	-562.307668	916.118667	1393.233409	-592.647699	845.339678	1335.228565	-631.949215	829.807033	1268.861773	-655.296443	796.628283	1245.012764	-573.4833609999999	784.108713	1228.152862	-38.439199	936.963378	1158.518703	-107.646341	899.080463	1115.837847	-68.82094499999999	897.082935	1222.870164	-635.350576	1040.65046	1238.993344	-512.886119	1045.905115	1173.610657	-545.118303	1006.180444	1043.76872	-470.836334	
5	0.5600000000000001	985.0892710000001	1051.260956	-227.333135	846.239095	1103.025343	-421.697148	830.862842	1101.047854	-308.139929	918.258901	932.957998	-172.064144	911.77664	777.607444	-204.684178	1002.154657	646.628516	-213.387512	948.665785	903.620043	-519.292097	850.643508	762.483248	-485.40294	886.753923	622.901106	-478.601192	1096.878429	404.29905	-289.085006	1015.322982	353.556413	-227.130892	1067.155828	218.573	-316.562888	797.953298	425.445004	-418.84872	670.33117	472.616385	-473.770624	583.717141	381.138145	-427.75999	946.306728	94.345849	-323.861023	1185.925452	87.431206	-364.351809	1146.163785	50.584389	-268.561473	433.035266	465.896251	-416.651424	444.115171	230.395028	-389.705561	392.519131	263.830206	-483.888771	978.114116	1543.622038	-491.940084	969.129431	1515.337866	-174.411894	1033.801897	1487.741637	-300.012338	911.795746	1554.097645	-341.765685	834.395637	1455.243625	-126.80368	856.670956	1388.014079	-88.340183	764.2626279999999	1338.740799	-62.000088	713.530129	1288.679606	-44.039079	720.965437	1260.516473	-129.894366	883.272745	1457.065501	-560.750785	912.9022670000001	1383.936899	-591.703253	841.754862	1326.388923	-630.251188	825.295972	1260.68967	-653.9410339999999	793.166144	1236.855989	-572.4735439999999	792.580475	1213.867386	-34.309237	944.928461	1146.372497	-106.536258	908.282056	1103.044183	-67.269094	891.509092	1212.227152	-635.5333910000001	1036.754811	1221.426299	-513.828583	1039.672711	1157.075734	-548.017743	1004.324717	1035.746211	-471.997988	
